<svg width="32" height="32" viewBox="0 0 24 24" fill="none" xmlns="http://www.w3.org/2000/svg">
  <!-- Background circle -->
  <circle cx="12" cy="12" r="12" fill="#00D1C7"/>
  
  <!-- Workflow nodes -->
  <circle cx="6" cy="6" r="1.5" fill="white"/>
  <circle cx="18" cy="6" r="1.5" fill="white"/>
  <circle cx="6" cy="18" r="1.5" fill="white"/>
  <circle cx="18" cy="18" r="1.5" fill="white"/>
  <circle cx="12" cy="12" r="2" fill="white"/>
  
  <!-- Flow arrows -->
  <path d="M7.5 6L10.5 12" stroke="white" strokeWidth="1.2" strokeLinecap="round"/>
  <path d="M16.5 6L13.5 12" stroke="white" strokeWidth="1.2" strokeLinecap="round"/>
  <path d="M7.5 18L10.5 12" stroke="white" strokeWidth="1.2" strokeLinecap="round"/>
  <path d="M16.5 18L13.5 12" stroke="white" strokeWidth="1.2" strokeLinecap="round"/>
  
  <!-- AI brain pattern -->
  <path d="M10.2 10.2C10.2 10.2 10.6 9.5 12 10.2C13.4 9.5 13.8 10.2 13.8 10.2" 
        stroke="white" strokeWidth="0.8" fill="none" strokeLinecap="round"/>
  <path d="M10.2 13.8C10.2 13.8 10.6 14.5 12 13.8C13.4 14.5 13.8 13.8 13.8 13.8" 
        stroke="white" strokeWidth="0.8" fill="none" strokeLinecap="round"/>
</svg> 